<?xml version="1.0" encoding="utf-8"?>
<!-- Generator: Adobe Illustrator 17.0.0, SVG Export Plug-In . SVG Version: 6.00 Build 0)  -->
<!DOCTYPE svg PUBLIC "-//W3C//DTD SVG 1.1//EN" "http://www.w3.org/Graphics/SVG/1.1/DTD/svg11.dtd">
<svg version="1.1" id="Layer_1" xmlns="http://www.w3.org/2000/svg" xmlns:xlink="http://www.w3.org/1999/xlink" x="0px" y="0px"
	 width="56.693px" height="56.693px" viewBox="0 0 56.693 56.693" enable-background="new 0 0 56.693 56.693" xml:space="preserve">
<g>
	<path fill="#CD4A8B" d="M29.403,29.899c0.199-0.066,0.4-0.125,0.602-0.184c-0.383-0.867-0.801-1.736-1.238-2.594
		c-7.859,2.354-15.4,2.184-15.67,2.174c-0.005,0.164-0.013,0.322-0.013,0.486c0,3.922,1.479,7.496,3.911,10.199
		c-0.002-0.004-0.006-0.008-0.006-0.008S21.167,32.563,29.403,29.899z"/>
	<path fill="#CD4A8B" d="M27.501,24.772c-2.641-4.694-5.463-8.524-5.666-8.795c-4.257,2.01-7.434,5.932-8.424,10.659
		C13.813,26.64,20.173,26.72,27.501,24.772z"/>
	<path fill="#CD4A8B" d="M38.427,18.327c-2.688-2.369-6.217-3.807-10.08-3.807c-1.24,0-2.443,0.15-3.598,0.428
		c0.23,0.307,3.098,4.111,5.707,8.905C36.216,21.692,38.39,18.383,38.427,18.327z"/>
	<path fill="#CD4A8B" d="M24.692,14.963c-0.018,0.002-0.033,0.004-0.051,0.012c0.029-0.008,0.047-0.012,0.047-0.012H24.692z"/>
	<path fill="#CD4A8B" d="M18.965,41.813l0.003-0.006c-0.113-0.088-0.233-0.168-0.344-0.262
		C18.827,41.71,18.965,41.813,18.965,41.813z"/>
	<path fill="#CD4A8B" d="M31.63,26.126c0.355,0.729,0.697,1.469,1.016,2.213c0.111,0.268,0.221,0.529,0.328,0.791
		c5.244-0.66,10.41,0.451,10.631,0.496c-0.035-3.619-1.33-6.939-3.471-9.54C40.104,20.127,37.657,23.665,31.63,26.126z"/>
	<path fill="#CD4A8B" d="M30.944,32.278c-9.008,3.141-11.948,9.469-11.976,9.529c2.589,2.021,5.839,3.236,9.378,3.236
		c2.113,0,4.127-0.43,5.959-1.209c-0.227-1.334-1.113-6.008-3.262-11.59C31.011,32.257,30.978,32.267,30.944,32.278z"/>
	<path fill="#CD4A8B" d="M28.347,5.157c-13.6,0-24.625,11.027-24.625,24.625c0,13.6,11.024,24.623,24.625,24.623
		c13.6,0,24.625-11.023,24.625-24.623C52.972,16.184,41.946,5.157,28.347,5.157z M44.813,36.739
		c-0.447,1.061-1.002,2.082-1.648,3.035c-0.639,0.947-1.373,1.836-2.182,2.645c-0.809,0.807-1.697,1.541-2.643,2.182
		c-0.955,0.645-1.979,1.199-3.037,1.648c-1.08,0.455-2.209,0.805-3.357,1.041c-1.178,0.242-2.389,0.365-3.6,0.365
		s-2.422-0.123-3.6-0.365c-1.148-0.236-2.279-0.586-3.357-1.041c-1.06-0.449-2.083-1.004-3.038-1.648
		c-0.945-0.641-1.835-1.375-2.643-2.182c-0.809-0.809-1.543-1.697-2.182-2.645c-0.645-0.953-1.199-1.975-1.648-3.035
		c-0.456-1.08-0.807-2.209-1.043-3.359c-0.239-1.178-0.361-2.387-0.361-3.598s0.122-2.422,0.361-3.598
		c0.236-1.15,0.587-2.281,1.043-3.359c0.449-1.061,1.004-2.084,1.648-3.038c0.639-0.947,1.373-1.834,2.182-2.645
		c0.808-0.807,1.697-1.539,2.643-2.18c0.955-0.646,1.978-1.201,3.038-1.65c1.078-0.457,2.209-0.807,3.357-1.041
		c1.178-0.24,2.389-0.363,3.6-0.363s2.422,0.123,3.6,0.363c1.148,0.234,2.277,0.584,3.357,1.041c1.059,0.449,2.082,1.004,3.037,1.65
		c0.945,0.641,1.834,1.373,2.643,2.18c0.809,0.811,1.543,1.697,2.182,2.645c0.646,0.953,1.201,1.977,1.648,3.038
		c0.457,1.078,0.807,2.209,1.041,3.359c0.242,1.176,0.365,2.387,0.365,3.598s-0.123,2.42-0.365,3.598
		C45.62,34.53,45.271,35.659,44.813,36.739z"/>
	<path fill="#CD4A8B" d="M33.905,31.538c2.002,5.502,2.814,9.982,2.971,10.902c3.426-2.312,5.861-5.984,6.539-10.238
		C43.101,32.101,38.831,30.749,33.905,31.538z"/>
</g>
</svg>
