<?xml version="1.0" encoding="utf-8"?>
<!-- Generator: Adobe Illustrator 17.0.1, SVG Export Plug-In . SVG Version: 6.00 Build 0)  -->
<!DOCTYPE svg PUBLIC "-//W3C//DTD SVG 1.1//EN" "http://www.w3.org/Graphics/SVG/1.1/DTD/svg11.dtd">
<svg version="1.1" id="Layer_1" xmlns="http://www.w3.org/2000/svg" xmlns:xlink="http://www.w3.org/1999/xlink" x="0px" y="0px"
	 width="205px" height="205px" viewBox="24.134 -5.189 205 205" enable-background="new 24.134 -5.189 205 205"
	 xml:space="preserve">
<g>
	<path fill="#314856" d="M217.788,137.895c1.717,0.798,2.463,2.838,1.665,4.556l-9.396,20.215c-0.798,1.717-2.836,2.462-4.553,1.665
		l-57.533-26.738c-1.719-0.799-2.463-2.837-1.666-4.554l9.396-20.213c0.797-1.718,2.835-2.463,4.553-1.666L217.788,137.895"/>
	<path fill="#314856" d="M35.134,97.609c0-40.879,33.14-74.017,74.016-74.017s74.016,33.138,74.016,74.017
		c0,40.876-33.14,74.015-74.016,74.015C68.274,171.623,35.134,138.485,35.134,97.609"/>
	<path fill="#E7EFF1" d="M46.285,97.385c0-34.474,27.947-62.421,62.421-62.421s62.42,27.947,62.42,62.421
		c0,34.475-27.946,62.423-62.42,62.423S46.285,131.859,46.285,97.385"/>
	<path fill="#FFFFFF" d="M84.313,141.364c-17.533-0.004-32.106-18.979-32.56-43.122C51.301,74.097,65.142,53.93,82.676,53.93
		C102.291,53.93,105.721,141.367,84.313,141.364z"/>
	<polyline fill="#53B771" points="170.557,46.581 106.538,99.163 77.258,77.593 65.463,90.298 101.614,132.341 107.984,139.749 
		114.624,132.572 182.481,59.243 170.557,46.581 	"/>
	<path fill="#2C404D" d="M179.661,120.177c-3.032,9.479-7.925,18.132-14.246,25.522l40.089,18.631
		c0.468,0.217,0.958,0.32,1.442,0.32c1.292,0,2.53-0.736,3.111-1.985l9.396-20.215c0.799-1.718,0.052-3.758-1.665-4.556
		L179.661,120.177"/>
	<path fill="#2C404D" d="M176.141,66.094l-8.885,9.602c2.504,6.755,3.872,14.064,3.872,21.689c0,34.475-27.946,62.423-62.42,62.423
		c-0.425,0-0.848-0.005-1.271-0.013v11.809c0.572,0.013,1.142,0.02,1.715,0.02c22.519,0,42.689-10.056,56.264-25.924
		c6.322-7.39,11.214-16.042,14.246-25.522c2.275-7.117,3.505-14.698,3.505-22.569C183.166,86.338,180.645,75.656,176.141,66.094
		 M109.15,23.592c-0.573,0-1.143,0.007-1.715,0.02v11.365c0.423-0.009,0.846-0.013,1.271-0.013c19.433,0,36.788,8.878,48.236,22.8
		l9.114-7.486C152.48,33.973,132.026,23.592,109.15,23.592"/>
	<path fill="#CED5D7" d="M167.255,75.696l-52.631,56.877l-6.64,7.177l-0.549-0.638v20.683c0.423,0.009,0.846,0.013,1.271,0.013
		c34.475,0,62.42-27.948,62.42-62.423C171.126,89.759,169.759,82.451,167.255,75.696 M108.706,34.963
		c-0.425,0-0.848,0.005-1.271,0.013v63.45l49.507-40.663C145.494,43.841,128.139,34.963,108.706,34.963"/>
	<polyline fill="#4AA365" points="170.557,46.581 166.056,50.277 156.942,57.763 107.435,98.426 107.435,139.111 107.984,139.749 
		114.624,132.572 167.255,75.696 176.141,66.094 182.481,59.243 170.557,46.581 	"/>
</g>
</svg>
