<?xml version="1.0" encoding="utf-8"?>
<!-- Generator: Adobe Illustrator 17.0.1, SVG Export Plug-In . SVG Version: 6.00 Build 0)  -->
<!DOCTYPE svg PUBLIC "-//W3C//DTD SVG 1.1//EN" "http://www.w3.org/Graphics/SVG/1.1/DTD/svg11.dtd">
<svg version="1.1" id="Layer_1" xmlns="http://www.w3.org/2000/svg" xmlns:xlink="http://www.w3.org/1999/xlink" x="0px" y="0px"
	 width="205px" height="205px" viewBox="24.134 -5.189 205 205" enable-background="new 24.134 -5.189 205 205"
	 xml:space="preserve">
<g>
	<path fill="#53B771" d="M173.642,115.962c23.539-0.187,45.583,7.66,45.957,12.143c0.374,4.483-19.797,13.824-45.579,13.637
		c-25.783-0.187-46.705-9.527-46.892-13.637C126.94,123.996,150.104,116.148,173.642,115.962"/>
	<path fill="#66CC81" d="M161.338,94.332c20.291-11.931,43.306-16.158,45.871-12.462c2.566,3.695-10.232,21.869-32.654,34.598
		c-22.422,12.729-45.211,15.103-47.427,11.636C124.91,124.64,141.047,106.262,161.338,94.332"/>
	<path fill="#53B771" d="M139.868,81.752c11.607-20.478,29.425-35.646,33.494-33.728c4.069,1.917,2.073,24.055-10.98,46.291
		c-13.053,22.234-31.603,35.684-35.255,33.79C123.474,126.213,128.261,102.229,139.868,81.752"/>
	<path fill="#66CC81" d="M114.984,81.592c-0.186-23.539,7.66-45.584,12.144-45.956c4.482-0.375,13.823,19.796,13.636,45.578
		c-0.187,25.784-9.527,46.706-13.636,46.892C123.018,128.293,115.171,105.129,114.984,81.592"/>
	<path fill="#53B771" d="M93.354,93.895C81.423,73.603,77.196,50.588,80.892,48.024c3.696-2.565,21.87,10.232,34.6,32.654
		c12.73,22.422,15.102,45.212,11.636,47.427C123.662,130.322,105.285,114.186,93.354,93.895"/>
	<path fill="#66CC81" d="M80.773,115.364c-20.478-11.607-35.646-29.425-33.728-33.494c1.917-4.07,24.056-2.074,46.291,10.979
		c22.235,13.053,35.684,31.603,33.792,35.255C125.235,131.758,101.251,126.973,80.773,115.364"/>
	<path fill="#53B771" d="M80.613,140.249c-23.538,0.187-45.582-7.66-45.956-12.143c-0.374-4.482,19.796-13.824,45.58-13.636
		c25.782,0.186,46.704,9.526,46.891,13.636C127.316,132.215,104.151,140.063,80.613,140.249z"/>
	<path fill-rule="evenodd" clip-rule="evenodd" fill="#494B4F" d="M63.131,68.075H188.83c0.641,0,1.418,0.678,1.418,1.32v79.733
		c0,0.643-0.777,1.165-1.418,1.165H63.117c-0.642,0-1.153-0.522-1.153-1.165V69.395c0-0.642,0.245-1.266,0.886-1.266L63.131,68.075"
		/>
	<polyline fill-rule="evenodd" clip-rule="evenodd" fill="#FFFFFF" points="68.379,144.461 68.379,73.906 183.25,73.906 
		183.25,144.461 68.379,144.461 	"/>
	<polyline fill-rule="evenodd" clip-rule="evenodd" fill="#E7EFF1" points="68.379,115.306 68.379,73.906 183.25,73.906 
		183.25,115.306 68.379,115.306 	"/>
	<path fill-rule="evenodd" clip-rule="evenodd" fill="#E7EFF1" d="M95.785,137.469c0,1.286-1.042,2.328-2.328,2.328h-15.17
		c-1.286,0-2.328-1.042-2.328-2.328v-15.17c0-1.285,1.042-2.328,2.328-2.328h15.17c1.286,0,2.328,1.043,2.328,2.328V137.469z"/>
	<path fill-rule="evenodd" clip-rule="evenodd" fill="#E7EFF1" d="M123.774,137.51c0,1.285-1.022,2.286-2.309,2.286H106.18
		c-1.286,0-2.232-1.001-2.232-2.286v-15.287c0-1.285,0.945-2.252,2.232-2.252h15.285c1.286,0,2.309,0.967,2.309,2.252V137.51z"/>
	<path fill-rule="evenodd" clip-rule="evenodd" fill="#E7EFF1" d="M151.18,137.469c0,1.286-1.042,2.328-2.327,2.328h-15.171
		c-1.285,0-2.327-1.042-2.327-2.328v-15.17c0-1.286,1.042-2.328,2.327-2.328h15.171c1.285,0,2.327,1.042,2.327,2.328V137.469"/>
	<path fill-rule="evenodd" clip-rule="evenodd" fill="#E7EFF1" d="M178.002,137.51c0,1.286-0.625,2.287-1.911,2.287h-15.286
		c-1.287,0-2.629-1.001-2.629-2.287v-15.286c0-1.286,1.342-2.253,2.629-2.253h15.286c1.286,0,1.911,0.967,1.911,2.253V137.51"/>
	<path fill-rule="evenodd" clip-rule="evenodd" fill="#37C86A" d="M125.696,70.801c0-0.483,0.391-0.873,0.874-0.873
		c0.482,0,0.872,0.391,0.872,0.873c0,0.482-0.391,0.872-0.872,0.872C126.087,71.674,125.696,71.283,125.696,70.801"/>
	<polyline fill-rule="evenodd" clip-rule="evenodd" fill="#5C7DAD" points="178.002,88.484 120.858,88.484 120.858,83.236 
		178.002,83.236 178.002,88.484 	"/>
	<polyline fill-rule="evenodd" clip-rule="evenodd" fill="#5C7DAD" points="178.002,98.397 120.858,98.397 120.858,93.148 
		178.002,93.148 178.002,98.397 	"/>
	<polyline fill-rule="evenodd" clip-rule="evenodd" fill="#5C7DAD" points="154.095,107.143 120.858,107.143 120.858,101.895 
		154.095,101.895 154.095,107.143 	"/>
	<path fill-rule="evenodd" clip-rule="evenodd" fill="#616468" d="M202.493,149.725c0,0.958-0.777,1.734-1.735,1.734H50.871
		c-0.958,0-1.734-0.776-1.734-1.734v-3.529c0-0.958,0.777-1.734,1.734-1.734h149.887c0.958,0,1.735,0.777,1.735,1.734V149.725"/>
	<path fill-rule="evenodd" clip-rule="evenodd" fill="#878B8E" d="M202.493,152.844c0,0.958-0.572,1.531-1.53,1.531H50.96
		c-0.958,0-1.823-0.573-1.823-1.531v-3.717h153.356V152.844"/>
	<rect x="76.542" y="83.236" fill="#5C7DAD" width="34.986" height="23.907"/>
	<path fill="#4AA365" d="M190.247,117.085v23.522c17.519-2.599,29.641-9.019,29.351-12.503
		C219.315,124.711,206.615,119.39,190.247,117.085"/>
	<path fill="#5BB673" d="M202.345,80.574c-3.031,0-7.232,0.613-12.097,1.833v23.164c12.434-10.448,18.847-20.985,16.961-23.701
		C206.609,81.006,204.889,80.574,202.345,80.574"/>
	<path fill="#4AA365" d="M172.532,47.86c-3.92,0.001-14.059,8.1-23.5,20.215h24.256c2.758-10.91,2.451-18.931,0.074-20.051
		C173.129,47.913,172.852,47.86,172.532,47.86"/>
	<path fill="#5BB673" d="M127.272,35.631v32.444h12.768C137.811,49.154,130.992,35.677,127.272,35.631"/>
	<path fill="#414347" d="M188.83,68.075h-15.541h-24.256h-8.993h-12.768v2.208c0.107,0.145,0.17,0.324,0.17,0.518
		c0,0.194-0.063,0.372-0.17,0.517v2.588h55.978v41.4v29.155h6.997v-3.854v-23.522v-11.514V82.407V69.395
		C190.247,68.752,189.471,68.075,188.83,68.075"/>
	<path fill="#E4E4E4" d="M133.681,139.797c-1.285,0-2.327-1.042-2.327-2.328v-15.17c0-1.286,1.042-2.328,2.327-2.328h15.171
		c1.285,0,2.327,1.042,2.327,2.328v15.17c0,1.286-1.042,2.328-2.327,2.328H133.681 M160.805,139.797
		c-1.287,0-2.629-1.001-2.629-2.287v-15.286c0-1.286,1.342-2.253,2.629-2.253h15.286c1.286,0,1.911,0.967,1.911,2.253v15.286
		c0,1.286-0.625,2.287-1.911,2.287H160.805 M183.25,115.306h-55.978v29.155h55.978V115.306"/>
	<polyline fill="#CED5D7" points="183.25,73.906 127.272,73.906 127.272,83.236 178.002,83.236 178.002,88.484 127.272,88.484 
		127.272,93.148 178.002,93.148 178.002,98.397 127.272,98.397 127.272,101.895 154.095,101.895 154.095,107.143 127.272,107.143 
		127.272,115.306 183.25,115.306 183.25,73.906 	"/>
	<path fill="#CED5D7" d="M148.852,119.971h-15.171c-1.285,0-2.327,1.042-2.327,2.328v15.17c0,1.286,1.042,2.328,2.327,2.328h15.171
		c1.285,0,2.327-1.042,2.327-2.328v-15.17C151.18,121.013,150.137,119.971,148.852,119.971"/>
	<path fill="#CED5D7" d="M176.091,119.971h-15.286c-1.287,0-2.629,0.967-2.629,2.253v15.286c0,1.286,1.342,2.287,2.629,2.287h15.286
		c1.286,0,1.911-1.001,1.911-2.287v-15.286C178.002,120.938,177.377,119.971,176.091,119.971"/>
	<path fill="#31B35F" d="M127.272,70.283v1.035c0.107-0.145,0.17-0.323,0.17-0.517C127.442,70.607,127.379,70.428,127.272,70.283"/>
	<polyline fill="#52709B" points="178.002,83.236 127.272,83.236 127.272,88.484 178.002,88.484 178.002,83.236 	"/>
	<polyline fill="#52709B" points="178.002,93.148 127.272,93.148 127.272,98.397 178.002,98.397 178.002,93.148 	"/>
	<polyline fill="#52709B" points="154.095,101.895 127.272,101.895 127.272,107.143 154.095,107.143 154.095,101.895 	"/>
	<path fill="#57595D" d="M200.758,144.461h-10.511h-6.997h-55.978v4.665h75.22v-2.93
		C202.493,145.238,201.716,144.461,200.758,144.461"/>
	<path fill="#797C7F" d="M202.493,149.126L202.493,149.126h-75.22v5.248h73.691c0.958,0,1.53-0.573,1.53-1.531V149.126"/>
</g>
</svg>
