<?xml version="1.0" encoding="utf-8"?>
<!-- Generator: Adobe Illustrator 18.1.1, SVG Export Plug-In . SVG Version: 6.00 Build 0)  -->
<svg version="1.1" id="Слой_1" xmlns="http://www.w3.org/2000/svg" xmlns:xlink="http://www.w3.org/1999/xlink" x="0px" y="0px"
	 viewBox="0 0 117.7 107.5" enable-background="new 0 0 117.7 107.5" xml:space="preserve">
<g id="XMLID_119_">
	<path id="XMLID_132_" fill="#62BC47" d="M103.8,45.3c0,25-20.3,45.3-45.3,45.3c-25,0-45.3-20.3-45.3-45.3C13.2,20.3,33.5,0,58.5,0
		C83.5,0,103.8,20.3,103.8,45.3z"/>
	<g id="XMLID_120_">
		<path id="XMLID_129_" fill="#FFFFFF" d="M47.3,38.9c-3.7,0.4-4.8,4.9-4.9,8l0,0v0c0,0.5,0,0.9,0,1.3c0,1.5-0.1,2.6-0.2,4
			c-0.1,0.6-0.3,1.8-0.4,1.8c-1.4,0.1-2.4-1.9-2.8-2.9c-0.9-2.3-1.6-4.7-2-7.2c-0.5-2.6-0.7-5.3-0.9-8c-0.1-1.1-0.1-2.2-0.1-3.3
			c0-0.4,0-0.9,0.1-1.3c0-0.3,0.1-0.7,0.1-0.8c0.3-2-2.5-0.1-3,0.8c-3,5.2-2.1,11.5-2,17.2c0,1.5-0.1,3.1-0.3,4.7
			c-0.2,1.1-0.4,3-1.2,3.8c-0.6,0.6-1.6,0.1-2-0.1c-0.7-0.4-1.2-1.2-1.3-2c-0.1-0.9-1.1-0.4-1.6,0.1c-0.7,0.6-1.3,1.8-1.2,2.7
			c0.3,2,2.2,3.8,4.3,3.2c3.3-1,4.8-5,5.6-8.1c0.4-1.5,0.6-3.1,0.7-4.6c0.5,2.2,1.2,4.5,2.2,6.5c0.8,1.5,2.1,3.1,4,2.7
			c1.4-0.3,2.4-1.8,3.1-3.5c0.7,1.5,1.7,2.6,3.4,2.5c1.9-0.1,3.5-2.2,4.1-3.7c0.8-1.8,1.1-3.8,1-5.7C51.9,44.1,51.2,38.4,47.3,38.9z
			 M48.5,51.9c-0.1,0.4-0.2,0.8-0.3,1.1c-0.7-0.1-1.3-1.2-1.5-1.7c-0.6-1.2-0.8-2.6-1-4c-0.1-1.4-0.1-2.9,0.2-4.3
			c0.1-0.3,0.2-0.7,0.3-1.1c1.9,1.2,2.3,3.6,2.4,5.6C48.7,49,48.7,50.5,48.5,51.9z"/>
		<path id="XMLID_126_" fill="#FFFFFF" d="M92.3,44.2c-4-1.5-6.3,4-7.1,7c-0.7,2.9-1.5,7.9,2,9.3c1.7,0.7,3.7-0.6,4.7-1.7
			c1.2-1.4,2-3.2,2.5-5C95.2,50.9,96,45.6,92.3,44.2z M89.8,57.2c-0.2,0.3-0.4,0.6-0.6,0.9c-0.6-0.4-0.8-1.7-0.9-2.2
			c-0.2-1.4-0.1-2.9,0.2-4.2c0.3-1.4,0.7-2.8,1.3-4c0.2-0.3,0.4-0.6,0.6-0.9c1.5,1.8,1.1,4.3,0.7,6.4C90.8,54.5,90.5,56,89.8,57.2z"
			/>
		<path id="XMLID_121_" fill="#FFFFFF" d="M81.3,44.9c0.8-1,1.5-2.1,2.2-3.1c1.5-2.3,3-4.9,2.8-7.7c-0.1-2.6-3.7-2.8-5.4-1.9
			c-2.6,1.3-4.1,4-4.8,6.7c-1,3.5-1.5,7-1.7,10.6c0,0,0,0,0,0.1c-1.3,1.5-3.9,4.7-6,3.3c-0.5-0.3-0.8-1-1-1.6
			c1.7-1.8,3.1-3.6,4.5-5.6c1.2-1.8,2-4.9-0.3-6.2c-1.9-1.1-4.5,0.1-5.8,1.8c-1.3,1.6-1.9,3.7-2.1,5.7c-0.1,1.1-0.2,3,0,4.7
			c-1.2,0.7-2.7,1.2-4,0.9c-1.6-0.3-2.1-2-2.4-3.2c-0.4-1.9-0.3-3.9,0-5.7c0.1-0.6,0.2-1.2,0.4-1.7c0.1-0.1,0.1-0.3,0.2-0.4
			c1,0.4,1.4,1.9,1.6,2.6c0.4,1.4,3.9-0.9,3.5-2.1c-0.4-1.4-1-2.7-2.5-3.4C59,37.9,57,39,56.2,39.9c-2.4,2.4-2.7,6.1-2.5,9.3
			c0.1,2.1,0.6,4.7,2.4,5.8c2.4,1.5,5.8,0.1,8.2-1.3c0.6,1.5,1.8,2.6,3.7,2.3c2.4-0.3,4.6-1.7,6.4-3.3c0.1,1.8,0.5,3.9,1.8,4.6
			c2.1,1.2,4.8-0.2,6.2-2c1.8-2.3,2.9-5.6,1.8-8.5C83.6,45.5,82.5,44.9,81.3,44.9z M67.6,43.4c0.2-0.5,0.4-1,0.6-1.5c0,0,0,0,0,0
			c1,0.3,1.1,1.5,1,2.3c-0.2,1.5-1.2,3-2.3,4.3c0-0.3,0-0.5,0-0.8C67,46.3,67.2,44.8,67.6,43.4z M80.7,35.9c0.3-0.5,0.6-1,1-1.5
			c0,0,0,0,0.1-0.1c1.6,1.8,0.1,4.2-0.8,5.9c-0.9,1.6-1.8,3.2-2.9,4.8c0.2-1.6,0.5-3.1,0.9-4.6C79.4,38.8,80,37.3,80.7,35.9z
			 M79.8,54.4c-0.1,0.2-0.3,0.5-0.4,0.7c-0.1,0-0.2,0-0.4-0.1c-1-0.5-1.1-2.7-1.2-3.5c-0.1-0.8-0.1-1.5-0.1-2.3
			c0.4-0.5,0.9-1,1.3-1.5c0.9-0.6,1.5,0.6,1.7,1.5C81.2,50.9,80.5,53,79.8,54.4z"/>
	</g>
</g>
<g id="XMLID_55_">
	<g id="XMLID_23_">
		<path id="XMLID_65_" fill="#62BC47" d="M91,89.8c0.5-1.3,1.7-1.1,2,0c0.3,1.2-0.4,2.9-0.4,4.3c0,1.2,0.5,2.4,1.9,2.5
			c3.1,0.2,3.8-5.2,3.5-7.1c-0.1-0.5-0.5-0.4-0.8,0c-0.3,0.5-0.4,1.2-0.3,1.7c0.2,1.4-0.5,3.2-2.1,2.8c-1.8-0.4-0.4-4-0.6-5.4
			c-0.5-3-3.1-2.4-4.1,0.4C89.7,90.1,90.4,91.4,91,89.8L91,89.8z"/>
		<path id="XMLID_64_" fill="#62BC47" d="M22.5,94c2-0.4,5.9-1.8,5.4-4.5c-0.4-2-3.1-1.2-3.9-0.7c-1.6,1-3,2.8-3.5,4.9
			c-0.6,2.6,2.3,3.5,4.3,3.4c1.1-0.1,1.8-1.3,0.2-1.2c-3.8,0.2-1.9-3.6-0.8-5c0.3-0.4,0.7-0.8,1-1.1c0.6-0.5,0.3-0.4,0.5,0.1
			c0.6,1.9-3.1,2.8-4.2,3C20.1,93.1,21.5,94.2,22.5,94L22.5,94z"/>
		<path id="XMLID_63_" fill="#62BC47" d="M43.7,102.8c1.3-0.7,7.2-5.6,3.1-6.7c-2.6-0.7-4.3,2.1-4.9,3.6c-0.5,1.2-1.6,5.2,1.5,5.6
			c3.5,0.5,6.7-1.4,8.2-3.4c0.3-0.4-0.1-0.7-0.7-0.6c-0.7,0.1-1.2,0.5-1.5,0.9c-0.7,0.9-3,2.2-4.6,1.6c-1.3-0.5-0.9-2.6-0.8-3.4
			c0.1-0.6,0.3-1.2,0.5-1.8c0.1-0.3,0.3-0.6,0.5-0.8c0.1-0.1,0.2-0.3,0.3-0.4c0.2-0.2,0.2-0.2-0.1,0.1c2.6,0.8-2.2,4.2-2.9,4.7
			C40.8,103,42.7,103.4,43.7,102.8L43.7,102.8z"/>
		<path id="XMLID_62_" fill="#62BC47" d="M73.4,103.1c0.9,2.5,4.1,1.7,4.9-0.8c0.4-1.3,0.3-2.6,0.2-3.8c-0.1-1.1-0.6-2.5-0.2-3.7
			c-0.6,0.3-1.1,0.6-1.7,0.9c-0.3,2.7,1.9,5.3,2.9,7.7c0.4,1,2.1-1,2-1.6c-0.6-2.3-0.6-5.3-0.2-7.7c-0.5,0.3-1.1,0.7-1.7,1
			c0,2.3,0.8,5.3,2.7,6.9c2.3,1.9,4.7-3,4.6-4.5c-0.1-1.3-1.8,0.7-1.8,1.4c0.1,2.8-2.1-0.1-2.5-0.7c-0.7-1.3-1.3-2.9-1.4-4.4
			c0-1.2-1.5,0.4-1.7,1c-0.5,2.8-0.8,6-0.2,8.6c0.7-0.5,1.3-1.1,2-1.6c-1-2.2-3.3-4.7-3.1-7.2c0.1-1.3-1.5,0.4-1.7,0.9
			c-0.5,1.3-0.1,2.8,0,4.1c0.1,1,0.1,1.9,0,2.9c-0.1,0.9-0.4,0.4,0.2,0.3c-0.9,0.1-1.2-1-1.4-1.4C75,100.8,73.1,102.5,73.4,103.1
			L73.4,103.1z"/>
		<path id="XMLID_61_" fill="#62BC47" d="M12,72.9c-2,1.8-4,3.8-6.2,5.3C5,78.8,7.4,80,7.9,79.6c1.3-0.8,2.2-1,3.8-0.7
			c1.7,0.4,3.2-0.2,4.6-1c1.1-0.6-0.9-1.4-1.5-1.2c-2.2,0.8-4.8,2.8-6,5.3c-1.2,2.6,5.1,3.3,6,3.1c1.3-0.4-0.4-1.5-1.2-1.3
			c-0.2,0.1-2.8,0-2.6-0.7c0.2-0.8,0.8-1.5,1.3-2c1.1-1.3,2.5-2.6,4-3.2c-0.5-0.4-1-0.8-1.5-1.2c-1.5,0.8-2.6,0.9-4.4,0.6
			c-1.7-0.4-3.2,0.2-4.6,0.9c0.7,0.5,1.4,1,2.1,1.4c2.2-1.6,4-3.6,6-5.5C14.6,73.4,12.5,72.4,12,72.9L12,72.9z"/>
		<path id="XMLID_60_" fill="#62BC47" d="M35.4,94.3c-0.8,2.6-1.4,5.3-2.5,7.7c-0.4,0.9,2.2,0.4,2.5-0.1c0.7-1.4,1.4-2.1,3-2.8
			c1.8-0.8,2.8-2.1,3.6-3.6c0.6-1.1-1.7-0.5-2.1,0c-1.6,2-2.8,5.1-2.4,7.6c0.4,2.7,6.6-0.5,7.3-1.2c1.1-1.1-1.3-0.9-1.9-0.3
			c-0.2,0.2-2.6,1.7-2.8,1.1c-0.3-0.7-0.1-1.6,0.1-2.3c0.3-1.7,0.8-3.5,1.8-4.9c-0.7,0-1.4,0-2.1,0C39,97,38,97.8,36.3,98.6
			c-1.7,0.7-2.6,2-3.4,3.4c0.8,0,1.7-0.1,2.5-0.1c1-2.5,1.6-5.2,2.3-7.8C37.9,93.1,35.6,93.6,35.4,94.3L35.4,94.3z"/>
		<g id="XMLID_57_">
			<path id="XMLID_59_" fill="#62BC47" d="M26.2,97.1c-0.8,1.9,1.1,3.4,3.3,3c2-0.4,3-2.1,3.6-3.7c0.4-1.3,0.9-3.3-0.1-4.6
				c-0.5-0.6-1.6-0.6-2.2-0.5c-1.3,0.1-2.2,1.1-2.8,2.1c-0.5,0.9,1.8,0.7,2.1,0.1c0.6-1.2,1.1-1,1.2,0.2c0.1,0.8-0.1,1.5-0.3,2.2
				c-0.2,0.8-0.6,1.7-1.2,2.3c-0.2,0.2-0.4,0.5-0.7,0.6c0.2-0.1,0.1-0.2-0.2-0.2c-0.6-0.4-0.6-1-0.4-1.5
				C28.8,96.3,26.5,96.5,26.2,97.1L26.2,97.1z"/>
			<path id="XMLID_58_" fill="#62BC47" d="M29.4,89.8c-1.7,4.8-4,9.5-6.8,13.6c-0.5,0.8,2.1,0.9,2.4,0.3c2.8-4.3,5-9.2,6.5-14.1
				C31.7,88.9,29.6,89.1,29.4,89.8L29.4,89.8z"/>
		</g>
		<path id="XMLID_56_" fill="#62BC47" d="M17,79.8c-1.7,2.1-3.7,4-5.6,5.9c-0.7,0.7,1.6,1.5,2,1c1.3-1.3,2.6-2.5,4.1-3.5
			c0.5-0.3,1-0.6,1.5-0.8c-0.4-0.3-0.7-0.3-0.7,0.2c-0.1,0.2-0.1,0.4-0.2,0.6c-1,2.1-2.8,3.9-4.3,5.5c0.7,0.3,1.4,0.6,2.1,0.8
			c1.3-1.7,3.3-4.1,5.4-4.6c-0.9,0.2-0.5-0.4-0.8,0.5c-0.1,0.4-0.4,0.8-0.5,1.2c-0.6,1.1-1.4,2.1-2.1,3c-0.4,0.5-1.6,2.1-0.6,2.9
			c1.6,1.3,3.3,1.5,5,1.3c1.4-0.1,1-1.3-0.3-1.2c-0.5,0-2.9,0.1-2.7-1c0.2-1.2,1.2-2.1,1.8-3c0.5-0.8,2.3-3.2,1.6-4.3
			c-0.7-1.1-2.4-0.6-3.1-0.2c-2.1,0.9-4.1,2.7-5.7,4.6c-0.7,0.8,1.6,1.3,2.1,0.8c1.1-1.3,2.2-2.6,3.2-4.1c0.5-0.8,1.8-2.3,1.3-3.5
			c-0.5-1.1-2.3-0.7-3-0.5c-2.3,0.8-4.3,2.5-6,4.3c0.7,0.4,1.4,0.7,2,1c1.8-2,3.7-3.9,5.4-6.1C19.5,79.8,17.4,79.3,17,79.8L17,79.8z
			"/>
		<path id="XMLID_53_" fill="#62BC47" d="M49.6,97.6c-0.1,2.7-0.7,5.3-1.1,8c-0.1,1,2.4,0,2.5-0.6c0.3-1.8,0.7-3.6,1.4-5.3
			c0.2-0.5,0.5-1.1,0.9-1.6c-0.6,0.1-0.8,0.3-0.5,0.6c0.1,0.2,0.1,0.4,0.2,0.6c0.5,2.2,0,4.7-0.3,6.8c0.8-0.2,1.6-0.5,2.4-0.8
			c0.1-2.1,0.4-5.2,2-7c-0.7,0.8-0.7,0-0.4,0.9c0.1,0.4,0.2,0.8,0.2,1.2c0.2,1.2,0.1,2.4,0,3.6c0,0.6-0.1,2.6,1.4,2.5
			c2.3-0.1,4-1.1,5.5-2.3c1.2-1,0.1-1.7-1.1-0.7c-0.4,0.3-2.7,2-3.2,1c-0.6-1-0.2-2.3-0.3-3.4c0-0.9,0.1-3.9-1.3-4.3
			c-1.4-0.4-2.6,1.2-3.1,1.9c-1.4,2.1-2,4.8-2.2,7.1c-0.1,1,2.3-0.1,2.4-0.8c0.2-1.7,0.3-3.4,0.3-5.1c0-0.9,0.1-2.9-1.1-3.4
			c-1.2-0.5-2.6,1.1-3.1,1.7c-1.5,2.1-2.1,4.7-2.6,7.1c0.8-0.2,1.6-0.4,2.5-0.6c0.3-2.7,0.8-5.3,0.8-8C51.8,96,49.6,96.9,49.6,97.6
			L49.6,97.6z"/>
		<g id="XMLID_50_">
			<path id="XMLID_52_" fill="#62BC47" d="M105,86.1c2-3.3-0.5-6.8-2.6-8.2c-0.8-0.6-1.9-0.9-2.6,0.2c-1,1.7-0.2,4,0.8,5.2
				c0.6,0.8,1-1.7,0.5-2.2c-0.4-0.4-1.2-1.2-0.3-1.3c0.5-0.1,1.1,0.4,1.5,0.7c0.7,0.5,2.5,2.5,2,3.4C104.1,84.6,104.4,87.1,105,86.1
				L105,86.1z"/>
			<path id="XMLID_51_" fill="#62BC47" d="M107,83.2c-0.6,3.5-0.6,8.1,1.7,10c2,1.6,3.5-3,3.3-4.7c-0.3-3.2-5.8-10.2-7.6-4.1
				c-0.3,0.9,0.4,2.9,0.9,1.2c0.9-3.1,4.5,1.4,5,2.4c0.4,0.8,1.1,2.4-0.4,2.7c-2.1,0.4-2.2-4.7-1.9-6.3
				C108.1,83.4,107.3,81.5,107,83.2L107,83.2z"/>
		</g>
		<path id="XMLID_49_" fill="#62BC47" d="M6.8,76.9c-1.5-0.6,1.2-3.2,1.3-3.4c1.1-1,2.4-1.9,3.7-2.7c0.8-0.6-1.4-1.7-1.9-1.4
			c-1.1,0.7-2.2,1.4-3.4,2c-0.6,0.3-1.2,0.6-1.9,0.8c-0.8,0.2-0.9,0.4-1-0.7c-0.3-2.8,4.1-3.9,5.7-4.3c1.2-0.3-0.9-1.8-1.6-1.6
			c-1.6,0.3-8.9,2.3-6,6.4c3.4,4.9,8.1,0,10.2-1.3c-0.6-0.4-1.3-0.9-1.9-1.4c-2,1.2-4.3,2.4-5.6,4.6c-1.1,1.9,0.8,3.7,2.5,4.3
			C8.3,78.8,8.3,77.4,6.8,76.9L6.8,76.9z"/>
		<path id="XMLID_48_" fill="#62BC47" d="M106.5,69.5c2.3,1.4,4.7,2.7,6.8,4.4c0.8,0.6,0.8-2.2,0.3-2.7c-1.2-1.1-1.7-1.9-2.1-3.8
			c-0.4-2-1.4-3.4-2.6-4.6c-0.9-0.9-0.9,1.7-0.5,2.2c1.4,1.9,3.5,3.1,5.6,3.9c0.4,0.2,1.6,0.7,2.2,0c0.9-1.2,0.8-3.4,0.7-4.6
			c0-0.5-0.1-1.5-0.6-1.5c-0.5,0-0.6,1.1-0.6,1.4c0.1,0.9,0.4,2.2-0.6,2.1c-0.8,0-1.5-0.4-2.1-0.7c-1.4-0.7-2.9-1.6-4-2.9
			c-0.2,0.7-0.3,1.5-0.5,2.2c1.2,1.3,1.8,2.5,2.2,4.5c0.4,2,1.4,3.2,2.6,4.4c0.1-0.9,0.2-1.8,0.3-2.7c-2.2-1.6-4.6-2.8-7-4.1
			C105.8,66.6,106,69.2,106.5,69.5L106.5,69.5z"/>
		<path id="XMLID_47_" fill="#62BC47" d="M111.8,73.4c0.1,1.7-3.1-0.1-3.2-0.2c-1.3-0.8-2.5-1.8-3.7-2.8c-0.8-0.6-0.7,1.9-0.2,2.3
			c1,0.9,2,1.8,3,2.7c0.5,0.5,1,1,1.4,1.6c0.5,0.7,0.7,0.8-0.1,1.2c-2,1-4.6-2.9-5.6-4.3c-0.7-1.1-0.9,1.3-0.5,1.9
			c0.9,1.4,5.4,8,7.4,4.1c2.3-4.6-3.4-7.9-5.3-9.6c-0.1,0.8-0.1,1.6-0.2,2.3c1.8,1.6,3.6,3.5,5.9,4.1c1.9,0.5,2.5-2,2.4-4
			C112.8,71.2,111.7,71.7,111.8,73.4L111.8,73.4z"/>
		<path id="XMLID_46_" fill="#62BC47" d="M88.5,91c-1.3-2.3-3.7,0.7-4.2,2.5c-0.7,2.3,0,4.6,1.2,6.2c1.1,1.6,3.5,1.3,4.6-0.9
			C91.4,95.9,89.5,93.2,88.5,91c-0.4,0.6-0.9,1.3-1.4,1.9c0.6,1.4,1.2,2.8,1.9,4c0.4,0.7,0.9,1.7,1.8,2c1.8,0.5,3.2-3.7,3.4-4.6
			c0.3-1.6-1.1-0.7-1.3,0.5c-0.1,0.5-0.3,1.5-0.9,1.8c-0.2,0.1-0.8-0.8-0.9-0.9C90,94.3,89.3,92.6,88.5,91c-0.4-0.9-1.6,1.2-1.4,1.9
			c0.5,1.3,1.1,2.6,1.5,4c0.1,0.4,0.4,1.5,0.1,1.6c-0.4,0.2-0.8-0.1-1.1-0.3c-0.9-0.6-1.3-1.7-1.6-2.6c-0.2-0.5-0.3-1.1-0.3-1.7
			c0-0.3,0-0.6,0.1-0.9c0.2-0.7,1.2-0.1,1.3,0C87.7,93.7,88.9,91.6,88.5,91L88.5,91z"/>
		<path id="XMLID_24_" fill="#62BC47" d="M98,83.1c-1.8-2-2.9,1.4-2.9,3.2c0.1,2.3,1.2,4.5,2.7,6c1.4,1.4,3.2,0.6,3.6-1.8
			C101.8,87.4,99.4,85.1,98,83.1c-0.2,0.7-0.4,1.4-0.7,2.1c0.9,1.3,5.3,8.4,6.5,3.2c0.3-1.2-0.6-2.3-1-0.6c-0.1,0.4-1.8-1.1-1.9-1.2
			C99.8,85.6,98.9,84.4,98,83.1c-0.6-0.8-1,1.5-0.7,2.1c0.8,1.2,1.6,2.4,2.3,3.7c0.2,0.4,0.7,1.4,0.5,1.5c-0.3,0.2-0.7,0-1-0.1
			c-0.9-0.5-1.5-1.4-2-2.3c-0.3-0.5-0.5-1.1-0.7-1.6c-0.1-0.3-0.2-0.6-0.2-0.9c0-0.7,1-0.4,1.1-0.2C98,86,98.4,83.6,98,83.1L98,83.1
			z"/>
	</g>
</g>
<path id="XMLID_54_" fill="#62BC47" d="M69.7,99.3c-0.9,0.2-0.4,0.1-1.3,0.3c-0.7,0.1-0.6,0.1-1.2,0.2c-0.6,0.1-1.1,0.1-1.7,0.2
	c-0.5,0.1-1.4,0.4-1.5,0.9c-0.1,0.6,0.8,0.6,1.2,0.6c2.1-0.2,2.8-0.4,4.8-0.9c0.4-0.1,1.3-0.5,1.2-1c-0.2-0.6-0.4-0.5-0.8-0.4
	L69.7,99.3z"/>
</svg>
