<?xml version="1.0" encoding="utf-8"?>
<!-- Generator: Adobe Illustrator 17.0.0, SVG Export Plug-In . SVG Version: 6.00 Build 0)  -->
<!DOCTYPE svg PUBLIC "-//W3C//DTD SVG 1.1//EN" "http://www.w3.org/Graphics/SVG/1.1/DTD/svg11.dtd">
<svg version="1.1" id="Layer_1" xmlns="http://www.w3.org/2000/svg" xmlns:xlink="http://www.w3.org/1999/xlink" x="0px" y="0px"
	 width="20px" height="20px" viewBox="0 0 20 20" enable-background="new 0 0 20 20" xml:space="preserve">
<path fill="#FFFFFF" d="M7.281,9.875c0,0.679-0.543,1.222-1.222,1.222c-0.662,0-1.205-0.543-1.205-1.222
	c0-0.662,0.543-1.205,1.205-1.205C6.738,8.67,7.281,9.213,7.281,9.875z M11.525,9.875c0,0.679-0.543,1.222-1.222,1.222
	c-0.662,0-1.205-0.543-1.205-1.222c0-0.662,0.543-1.205,1.205-1.205C10.981,8.67,11.525,9.213,11.525,9.875z M15.768,9.875
	c0,0.679-0.543,1.222-1.222,1.222c-0.662,0-1.205-0.543-1.205-1.222c0-0.662,0.543-1.205,1.205-1.205
	C15.225,8.67,15.768,9.213,15.768,9.875z M20.011,9.875C20.011,5.53,15.53,2,9.997,2C4.481,2,0,5.53,0,9.875
	c0,1.68,0.679,3.242,1.799,4.515c0,0-0.119,2.325-1.799,4.583l6.059-1.816l-0.034-0.051c1.222,0.424,2.563,0.662,3.972,0.662
	C15.53,17.768,20.011,14.237,20.011,9.875z"/>
</svg>
