<?xml version="1.0" encoding="utf-8"?>
<!-- Generator: Adobe Illustrator 18.1.1, SVG Export Plug-In . SVG Version: 6.00 Build 0)  -->
<svg version="1.1" id="Layer_1" xmlns="http://www.w3.org/2000/svg" xmlns:xlink="http://www.w3.org/1999/xlink" x="0px" y="0px"
	 viewBox="0 0 127.7 157.3" enable-background="new 0 0 127.7 157.3" xml:space="preserve">
<g>
	<path fill-rule="evenodd" clip-rule="evenodd" fill="#FFFFFF" d="M69.5,129.9c0.6,1,1,1.9,1.5,2.7c0.8,1.3,0.8,2.9-0.2,3.9
		c-0.3,0.3-0.9,0.4-1.3,0.4c-2.5-0.3-3.7,0.7-4.5,3.1c-0.4,1.4-0.6,2.5,0.5,3.5c1.5,1.4,1.2,2.8,0.6,4.7c-1.1,3.3-3,5.3-6.3,6.3
		c-2.1,0.6-4.1,1.7-6.1,2.6c-0.9,0.4-1.4,0.3-1.8-0.7c-1.2-3.2-2.5-6.4-3.7-9.6c-0.2-0.6-0.2-1.4,0.1-2c7.6-18.3,15.3-36.5,23-54.7
		c0.2-0.4,0.3-0.8,0.5-1.2c-0.1-0.2-0.1-0.3-0.2-0.3c-2.3-1.1-1.7-1.3-0.8-3.9c0.4-1,1-2,1.2-3.1c0.1-0.5-0.4-1.3-0.8-1.8
		c-4.3-4.3-7.1-9.5-8.4-15.4c-2.1-9.8-0.4-18.9,5.7-26.9c8.2-10.7,19.1-14.7,32.3-12.8c1.9,0.3,2,0.3,2.1,2.2c0.1,1.8,0,3.6,0,5.4
		c0,0.9-0.4,1.2-1.4,1.1c-4.5-0.4-8.2,1.2-10.7,5c-2.7,4.2-2.1,9.7,1.3,13.3c3.3,3.6,8.7,4.5,13.1,2.3c4.4-2.3,6.8-7.2,5.7-12.1
		c-0.2-0.9-0.1-1.7,0.1-2.7c0.7-2.7,1.1-5.5,1.7-8.2c0.1-0.4,0.1-0.8,0.1-1.3c0.1-0.1,0.2-0.2,0.3-0.2c1.5,1.3,3.2,2.4,4.6,3.9
		c7.1,7.1,10.4,15.7,9.9,25.7c-0.8,16.1-14.6,29.9-30.7,30.6c-0.6,0-1.3,0.2-1.9,0.1c-1.4-0.3-2,0.5-2.4,1.7c-0.4,1.2-1,2.4-1.5,3.7
		c-0.4,0.9-1,1.2-1.8,0.8c-0.9-0.5-1.2,0-1.6,0.8c-1,2.6-2.2,5.1-3.2,7.6c-0.3,0.7-0.7,1.1-1.5,1.3c-1.8,0.3-2.7,2.2-1.8,3.9
		c0.9,1.7,0.2,3.7-1.6,3.9c-3,0.4-4.4,2.1-5.3,4.8c-0.6,1.8-0.8,3.1,0.3,4.7c1.4,2,1.2,3.6-0.3,5.5c-0.2,0.2-0.6,0.4-0.9,0.5
		C72.2,129.2,71,129.5,69.5,129.9z"/>
	<path fill-rule="evenodd" clip-rule="evenodd" fill="#FFFFFF" d="M15.3,119.4c0.4,1.4,0.8,2.5,1,3.6c0.1,0.5-0.1,1.3-0.4,1.7
		c-3.5,3.9-3.6,3.9-8.9,4c-1.9,0-3.8,0.1-5.8,0.2c-0.9,0-1.3-0.3-1.3-1.2c0-3.4,0-6.8,0.1-10.2c0-0.6,0.4-1.3,0.9-1.7
		c8.3-8.6,16.7-17.3,25-25.9c4.7-4.9,9.4-9.7,14.1-14.6c0.6-0.6,1-1.1,0.1-1.8c-0.7-0.6-0.4-1.2,0.1-1.8c1.1-1.2,2.2-2.4,3.4-3.5
		c0.7-0.7,0.8-1.3,0.4-2.2c-2.7-6-5.3-12-7.9-18c-1.2-2.8-1-4,1.1-6.1c8.2-8.5,16.5-17,24.7-25.5c2-2.1,4.1-2.2,6.4-0.5
		c3.5,2.7,7,5.4,10.5,8.1c0.4,0.3,0.8,0.7,1.3,1.1c-2.1,1.3-4.1,2.5-6,3.7c-0.1,0.1-0.2,0.1-0.3,0.1c-1.9-0.6-2.8,0.8-3.8,1.9
		c-0.7,0.7-1.4,1.4-2.1,2.2c-0.4,0.4-0.9,1-0.8,1.5c0.1,1.4-0.8,2.1-1.4,3.1c-2.4,3.9-4.3,8.1-5.1,12.6c-1.9,11.3,0.8,21.3,8.4,29.8
		c0.9,1.1,0.7,1.8,0.3,2.9c-1.2,3.1-0.7,2.5-3.6,1.5c-1.7-0.6-3.3-1.4-5-2c-0.3-0.1-0.8,0.1-1,0.3c-1.1,1-2.2,2.1-3.2,3.2
		c-1.5,1.6-1.5,1.6-3.4,0.2c-0.4,0.3-0.8,0.7-1.2,1.1c-1.7,1.8-3.5,3.5-5.2,5.4c-0.5,0.6-1,0.7-1.7,0.4c-0.4-0.2-0.7-0.3-1.1-0.4
		c-0.7-0.2-1.3-0.7-2.1,0.1c-0.8,0.8-1.3,1.5-0.8,2.6c0,0.1,0,0.2,0.1,0.4c0.5,2.3,0.2,3.3-1.7,4.5c-0.4,0.2-1.1,0.1-1.5-0.1
		c-1.3-0.6-2-0.2-3,0.8c-1.1,1.1-1.8,2.2-1.2,3.8c0.6,1.6-0.5,2.5-2.2,2.1c-0.2,0-0.4-0.1-0.6-0.1c-0.1,0.1-0.2,0.2-0.2,0.3
		c0,0.7,0.4,1.5,0.1,1.9c-0.6,0.9-1.5,1.7-2.3,2.4c-0.1,0.1-0.5,0.1-0.8,0c-0.4-0.1-0.7-0.3-1.1-0.4c-2.6-1.1-2.5-1-4.5,0.9
		c-0.6,0.6-1,1.2-0.5,2.1c0,0,0,0.1,0,0.1c1.1,3.4,1.1,3.3-1.4,5.8c-0.5,0.5-1,0.6-1.7,0.4C17.8,120.1,16.7,119.8,15.3,119.4z"/>
	<path fill-rule="evenodd" clip-rule="evenodd" fill="#FFFFFF" d="M92.5,49.5c1-0.7,1.9-1.2,2.7-1.8c10.7-7.7,12.8-22.8,4.5-33
		C91.3,4.5,76.1,3.4,66.3,12.5c-0.7,0.6-1.6,0.9-2.4,1.4c-1,0.6-2.1,1.1-3,1.9c-2.2,2.1-4.2,4.3-6.3,6.4c-0.3,0.3-0.6,0.6-1.2,0.8
		c0.1-0.5,0.2-1,0.3-1.4C57.4,7.9,70.2-1,84.7,0.1c13.3,1,24.7,12,26.1,25.6c1.2,11.3-3,20.4-12.1,27.2c-0.8,0.6-1.5,0.7-2.4,0.2
		C94.8,52.3,93.5,51.2,92.5,49.5z"/>
</g>
</svg>
