<?xml version="1.0" encoding="utf-8"?>
<!-- Generator: Adobe Illustrator 18.1.1, SVG Export Plug-In . SVG Version: 6.00 Build 0)  -->
<svg version="1.1" id="Isolation_Mode" xmlns="http://www.w3.org/2000/svg" xmlns:xlink="http://www.w3.org/1999/xlink" x="0px"
	 y="0px" viewBox="0 0 29.8 45.6" enable-background="new 0 0 29.8 45.6" xml:space="preserve">
<g>
	<path fill-rule="evenodd" clip-rule="evenodd" fill="none" stroke="#63B84D" stroke-width="3" stroke-miterlimit="10" d="M5.8,23.4
		l-0.3-14c0,0-0.1-7.8,9.5-7.9c0,0,8.6-0.5,8.6,7.8l0.3,13.9"/>
	<path fill-rule="evenodd" clip-rule="evenodd" fill="#63B84D" d="M14.9,15.9C6.7,15.9,0,22.5,0,30.8C0,39,6.7,45.6,14.9,45.6
		S29.8,39,29.8,30.8C29.8,22.5,23.1,15.9,14.9,15.9z M18.1,39.8l-5.9,0.1l1.7-9.8c-1.6-0.4-2.7-1.9-2.7-3.6c0-2.1,1.7-3.7,3.7-3.7
		s3.7,1.7,3.7,3.7c0,1.7-1.1,3.1-2.7,3.6L18.1,39.8z"/>
</g>
</svg>
